<svg width="40" height="40" viewBox="0 0 40 40" fill="none" xmlns="http://www.w3.org/2000/svg">
<circle cx="20" cy="20" r="20" fill="white"/>
<path d="M26 15C26 13.4087 25.3679 11.8826 24.2426 10.7574C23.1174 9.63214 21.5913 9 20 9C18.4087 9 16.8826 9.63214 15.7574 10.7574C14.6321 11.8826 14 13.4087 14 15C14 22 11 24 11 24H29C29 24 26 22 26 15Z" stroke="#A7A7A7" stroke-width="2" stroke-linecap="round" stroke-linejoin="round"/>
<path d="M21.73 28C21.5542 28.3031 21.3019 28.5547 20.9982 28.7295C20.6946 28.9044 20.3504 28.9965 20 28.9965C19.6496 28.9965 19.3054 28.9044 19.0018 28.7295C18.6982 28.5547 18.4458 28.3031 18.27 28" stroke="#A7A7A7" stroke-width="2" stroke-linecap="round" stroke-linejoin="round"/>
</svg>
